HIERARCHY
ROOT SpineBase
{
  OFFSET 0.000000 0.000000 0.000000
  CHANNELS 6 Xposition Yposition Zposition Zrotation Xrotation Yrotation
  JOINT SpineMid
  {
    OFFSET -0.000000 28.455824 0.000000
    CHANNELS 3 Zrotation Xrotation Yrotation
    JOINT SpineShoulder
    {
      OFFSET -0.261049 21.062857 -0.587503
      CHANNELS 3 Zrotation Xrotation Yrotation
      JOINT Neck
      {
        OFFSET -0.181015 6.961905 -0.491381
        CHANNELS 3 Zrotation Xrotation Yrotation
        JOINT Head
        {
          OFFSET -2.712654 11.240004 1.682108
          CHANNELS 3 Zrotation Xrotation Yrotation
          End Site
          {
            OFFSET 0 0 0
          }
        }
      }
      JOINT ShoulderLeft
      {
        OFFSET -13.504148 -4.173231 12.922305
        CHANNELS 3 Zrotation Xrotation Yrotation
        JOINT ElbowLeft
        {
          OFFSET -1.327706 -25.685197 5.317263
          CHANNELS 3 Zrotation Xrotation Yrotation
          JOINT WristLeft
          {
            OFFSET -5.036377 -20.144628 0.397462
            CHANNELS 3 Zrotation Xrotation Yrotation
            JOINT HandLeft
            {
              OFFSET 0.268989 -5.737694 -4.388254
              CHANNELS 3 Zrotation Xrotation Yrotation
              JOINT HandTipLeft
              {
                OFFSET -1.355497 -5.363060 -1.636896
                CHANNELS 3 Zrotation Xrotation Yrotation
                End Site
                {
                  OFFSET 0 0 0
                }
              }
              JOINT ThumbLeft
              {
                OFFSET -2.898995 0.590160 -0.429748
                CHANNELS 3 Zrotation Xrotation Yrotation
                End Site
                {
                  OFFSET 0 0 0
                }
              }
            }
          }
        }
      }
      JOINT ShoulderRight
      {
        OFFSET 9.726523 -3.203156 -11.868065
        CHANNELS 3 Zrotation Xrotation Yrotation
        JOINT ElbowRight
        {
          OFFSET 4.257203 -23.133182 -5.441790
          CHANNELS 3 Zrotation Xrotation Yrotation
          JOINT WristRight
          {
            OFFSET -4.207325 -26.055422 -2.413453
            CHANNELS 3 Zrotation Xrotation Yrotation
            JOINT HandRight
            {
              OFFSET -1.825687 -7.436804 0.221709
              CHANNELS 3 Zrotation Xrotation Yrotation
              JOINT HandTipRight
              {
                OFFSET -1.678749 -6.963901 0.125347
                CHANNELS 3 Zrotation Xrotation Yrotation
                End Site
                {
                  OFFSET 0 0 0
                }
              }
              JOINT ThumbRight
              {
                OFFSET 2.241762 -0.569022 -2.508563
                CHANNELS 3 Zrotation Xrotation Yrotation
                End Site
                {
                  OFFSET 0 0 0
                }
              }
            }
          }
        }
      }
    }
  }
  JOINT HipLeft
  {
    OFFSET -6.235410 1.172493 0.267988
    CHANNELS 3 Zrotation Xrotation Yrotation
    JOINT KneeLeft
    {
      OFFSET -3.824851 -30.795500 9.759813
      CHANNELS 3 Zrotation Xrotation Yrotation
      JOINT AnkleLeft
      {
        OFFSET 0.089826 -38.449668 8.510002
        CHANNELS 3 Zrotation Xrotation Yrotation
        JOINT FootLeft
        {
          OFFSET -6.350251 -7.215363 -4.082557
          CHANNELS 3 Zrotation Xrotation Yrotation
          End Site
          {
            OFFSET 0 0 0
          }
        }
      }
    }
  }
  JOINT HipRight
  {
    OFFSET 3.842559 -0.205289 -6.694501
    CHANNELS 3 Zrotation Xrotation Yrotation
    JOINT KneeRight
    {
      OFFSET 4.644077 -36.137674 4.005144
      CHANNELS 3 Zrotation Xrotation Yrotation
      JOINT AnkleRight
      {
        OFFSET 4.101530 -33.892826 8.055284
        CHANNELS 3 Zrotation Xrotation Yrotation
        JOINT FootRight
        {
          OFFSET -2.417095 -3.615693 -8.224614
          CHANNELS 3 Zrotation Xrotation Yrotation
          End Site
          {
            OFFSET 0 0 0
          }
        }
      }
    }
  }
}
MOTION
Frames: 12
Frame Time: 0.033333
151.012411 86.069617 396.763451 0.000000 0.000000 34.639133 -0.000000 0.000000 -34.639133 -0.000000 0.000000 0.000000 -0.000000 0.000000 0.000000 0.000000 0.000000 0.000000 -0.000000 0.000000 0.000000 -0.000000 0.000000 0.000000 -0.000000 0.000000 0.000000 -0.000000 0.000000 0.000000 0.000000 0.000000 0.000000 0.000000 0.000000 0.000000 -0.000000 0.000000 0.000000 -0.000000 0.000000 0.000000 -0.000000 0.000000 0.000000 -0.000000 0.000000 0.000000 0.000000 0.000000 0.000000 0.000000 0.000000 0.000000 -0.000000 0.000000 -34.639133 -0.000000 0.000000 0.000000 -0.000000 0.000000 0.000000 0.000000 0.000000 0.000000 -0.000000 0.000000 -34.639133 -0.000000 0.000000 0.000000 -0.000000 0.000000 0.000000 0.000000 0.000000 0.000000
151.069520 86.058074 396.657599 0.053376 0.136945 34.318158 -0.121293 -0.083013 -34.318309 -0.000000 0.000000 0.000000 -0.000000 0.000000 0.000000 0.000000 0.000000 0.000000 -0.000000 0.000000 0.000000 0.176959 1.125772 -0.279873 -0.748927 -5.180241 0.517456 1.707941 -2.690964 1.079694 0.000000 0.000000 0.000000 0.000000 0.000000 0.000000 -0.000000 0.000000 0.000000 -0.000000 0.000000 0.000000 -0.000000 0.000000 0.000000 0.348663 2.493802 -0.603249 0.000000 0.000000 0.000000 0.000000 0.000000 0.000000 -0.121293 -0.083013 -34.318309 -0.000000 0.000000 0.000000 0.433071 0.488766 -0.677663 0.000000 0.000000 0.000000 -0.121293 -0.083013 -34.318309 -0.000000 0.000000 0.000000 -0.413497 1.512935 -0.063357 0.000000 0.000000 0.000000
151.115696 86.050011 396.568742 0.096481 0.244517 34.057314 -0.216868 -0.148545 -34.057801 -0.000000 0.000000 0.000000 -0.000000 0.000000 0.000000 0.000000 0.000000 0.000000 -0.000000 0.000000 0.000000 0.325226 2.016870 -0.504129 -1.366776 -9.138729 0.931758 3.153702 -4.882125 1.824975 0.000000 0.000000 0.000000 0.000000 0.000000 0.000000 -0.000000 0.000000 0.000000 0.430477 0.758126 -0.165142 -0.428327 -0.759342 0.159456 0.646046 4.666586 -1.142619 0.000000 0.000000 0.000000 0.000000 0.000000 0.000000 -1.358509 -0.473407 -34.192809 0.761850 0.910204 0.122759 0.753919 0.722610 -1.069663 0.000000 0.000000 0.000000 -0.216868 -0.148545 -34.057801 0.877087 0.037519 0.212533 -1.402135 1.618831 -0.105521 0.000000 0.000000 0.000000
151.150937 86.045428 396.496881 0.129325 0.322742 33.858503 -0.287209 -0.195956 -33.859358 -0.000000 0.000000 0.000000 -0.000000 0.000000 0.000000 0.000000 0.000000 0.000000 0.664883 -0.552537 0.169293 -0.213397 3.226708 -0.838483 -1.887922 -11.891612 1.274129 4.278149 -6.572205 2.267980 0.000000 0.000000 0.000000 0.000000 0.000000 0.000000 -0.000000 0.000000 0.000000 0.601805 1.101624 -0.239411 -0.597308 -1.104069 0.227870 0.872444 6.460572 -1.597054 0.000000 0.000000 0.000000 0.000000 0.000000 0.000000 -1.792639 -0.624594 -34.041469 1.007744 1.197716 0.160797 0.958166 0.703751 -1.171933 0.000000 0.000000 0.000000 -0.287209 -0.195956 -33.859358 1.188885 0.104312 0.293807 -1.189406 -0.098192 -0.295908 0.000000 0.000000 0.000000
151.175246 86.044324 396.442014 0.151913 0.371632 33.722897 -0.332675 -0.224757 -33.724042 -0.000000 0.000000 0.000000 -0.000000 0.000000 0.000000 0.000000 0.000000 0.000000 0.900233 -0.718939 0.228974 -0.359819 3.816751 -1.004208 -2.336729 -13.445228 1.568505 5.065449 -7.834701 2.443763 0.000000 0.000000 0.000000 0.000000 0.000000 0.000000 -0.000000 0.000000 0.000000 0.737441 1.412015 -0.305382 -0.730129 -1.415810 0.287273 1.009981 7.830065 -1.947787 0.000000 0.000000 0.000000 0.000000 0.000000 0.000000 -2.047990 -0.709645 -33.935442 1.152807 1.359593 0.183734 1.044595 0.431160 -0.980214 0.000000 0.000000 0.000000 -1.079950 -0.700427 -33.873790 1.771004 1.017319 0.479287 -1.187278 -2.742295 0.849149 0.000000 0.000000 0.000000
151.188620 86.046700 396.404142 0.164245 0.391179 33.650933 -0.353490 -0.234612 -33.652218 -0.000000 0.000000 0.000000 -0.000000 0.000000 0.000000 0.000000 0.000000 0.000000 1.139699 -0.874108 0.289514 -0.545150 4.162823 -1.109994 -2.730112 -13.775529 1.835612 5.518960 -8.762918 2.377926 0.000000 0.000000 0.000000 0.000000 0.000000 0.000000 -0.000000 0.000000 0.000000 0.833615 1.682995 -0.361176 -0.823348 -1.688040 0.336802 1.044395 8.741821 -2.179999 0.000000 0.000000 0.000000 0.000000 0.000000 0.000000 -2.115286 -0.723686 -33.872908 1.468941 0.600072 0.245802 0.740179 0.688046 -0.561050 0.000000 0.000000 0.000000 -1.173976 -0.738095 -33.816180 1.959097 1.211109 0.535753 -0.367885 -7.284179 1.817120 0.000000 0.000000 0.000000
151.211819 86.080264 396.353464 0.187876 0.438408 33.776603 -0.399904 -0.259955 -33.778229 -0.000000 0.000000 0.000000 -0.000000 0.000000 0.000000 0.000000 0.000000 0.000000 1.368528 -1.023271 0.348009 -0.762194 4.318098 -1.164410 -2.854128 -13.053120 1.952487 3.860676 -8.341344 2.539835 0.000000 0.000000 0.000000 0.000000 0.000000 0.000000 -0.000000 0.000000 0.000000 0.948269 2.023461 -0.431228 -1.447932 -0.728247 0.050236 -0.057449 8.313312 -1.958051 0.000000 0.000000 0.000000 0.000000 0.000000 0.000000 -2.047745 -0.715976 -33.984153 1.074524 0.310849 0.168588 1.360741 -1.153264 1.174673 0.000000 0.000000 0.000000 -1.349503 -0.785784 -33.965917 2.237961 1.615807 0.628158 5.341048 -27.384340 7.364397 0.000000 0.000000 0.000000
151.215492 86.092871 396.340073 0.190380 0.410209 33.824588 -0.386504 -0.234800 -33.826062 -0.000000 0.000000 0.000000 -0.000000 0.000000 0.000000 0.000000 0.000000 0.000000 1.527537 -1.098897 0.387196 -1.115850 3.978215 -1.087286 -3.242940 -9.989266 2.397496 5.659267 -8.936305 1.063354 0.000000 0.000000 0.000000 0.000000 0.000000 0.000000 -0.000000 0.000000 0.000000 1.022093 2.235239 -0.475423 -1.119414 -1.445732 0.232861 0.075472 7.559169 -1.818585 0.000000 0.000000 0.000000 0.000000 0.000000 0.000000 -1.475293 -0.548343 -33.956797 0.585902 -0.067029 0.084756 0.737642 -3.428788 3.646756 0.000000 0.000000 0.000000 -1.328609 -0.747942 -34.011333 2.209129 1.849351 0.647301 10.143880 -38.102299 12.487244 0.000000 0.000000 0.000000
151.201248 86.097043 396.387506 0.168682 0.284060 33.819943 -0.298244 -0.142107 -33.820731 -0.000000 0.000000 0.000000 -0.000000 0.000000 0.000000 0.000000 0.000000 0.000000 1.968161 -1.021209 0.477354 -1.461669 3.603540 -1.096501 -3.665040 -7.215967 2.691067 4.346152 -11.538603 1.322948 0.000000 0.000000 0.000000 0.000000 0.000000 0.000000 -0.173658 -0.786698 -0.105319 1.250331 3.323753 -0.445065 -1.059316 -2.544456 0.485806 1.181739 7.735559 -1.933209 0.000000 0.000000 0.000000 0.000000 0.000000 0.000000 -0.298244 -0.142107 -33.820731 -0.009355 -0.860704 -0.004145 0.808775 -4.070856 4.038473 0.000000 0.000000 0.000000 -1.104294 -0.431721 -33.969682 1.891876 1.769721 0.572437 8.576506 -34.605746 11.062060 0.000000 0.000000 0.000000
151.127915 86.069273 396.502865 0.088094 0.067468 33.773619 -0.110733 -0.007110 -33.773678 -0.000000 0.000000 0.000000 -0.000000 0.000000 0.000000 0.000000 0.000000 0.000000 2.265847 -1.231977 0.556505 -1.634825 3.531564 -1.093625 -3.636424 -4.708951 2.640418 3.671582 -8.882538 0.297865 0.000000 0.000000 0.000000 0.000000 0.000000 0.000000 -0.119965 -0.862555 -0.131680 0.958681 3.249040 -0.363315 -0.826167 -2.391151 0.445795 2.244695 7.029487 -1.804538 0.000000 0.000000 0.000000 0.000000 0.000000 0.000000 -0.110733 -0.007110 -33.773678 -0.000000 0.000000 0.000000 0.861838 -4.970072 4.051332 0.000000 0.000000 0.000000 -0.110733 -0.007110 -33.773678 0.935548 1.406001 0.381766 0.293900 -11.195367 4.263052 0.000000 0.000000 0.000000
151.039149 86.008143 396.611487 0.019934 -0.129501 33.570443 0.055000 0.118924 -33.570478 -0.000000 0.000000 0.000000 -0.000000 0.000000 0.000000 0.000000 0.000000 0.000000 2.164498 -1.609561 0.560667 -1.733905 3.449701 -0.966768 -3.370698 1.288713 2.795341 6.824247 -8.505839 -1.856745 0.000000 0.000000 0.000000 0.000000 0.000000 0.000000 -0.023630 -0.946416 -0.169145 0.507934 2.877820 -0.204442 0.681745 -0.755867 0.123111 2.960516 3.604956 -0.931578 0.000000 0.000000 0.000000 0.000000 0.000000 0.000000 0.055000 0.118924 -33.570478 0.700642 -0.587898 0.157114 0.329051 -3.953884 3.397015 0.000000 0.000000 0.000000 0.055000 0.118924 -33.570478 0.723319 1.233618 0.313980 -3.672608 6.082708 1.424500 0.000000 0.000000 0.000000
150.902946 85.914968 396.718700 -0.068298 -0.319874 33.273324 0.232597 0.229963 -33.273981 -0.000000 0.000000 0.000000 -0.000000 0.000000 0.000000 0.000000 0.000000 0.000000 1.827045 -2.028597 0.514019 -1.686369 3.148531 -0.729253 -2.212770 5.432197 2.165139 6.461101 -5.969639 -2.793728 0.000000 0.000000 0.000000 0.000000 0.000000 0.000000 0.096113 -0.977036 -0.201972 0.401739 3.068011 -0.198210 1.351901 -1.296628 0.292047 2.712265 4.763647 -1.302887 0.000000 0.000000 0.000000 0.000000 0.000000 0.000000 0.232597 0.229963 -33.273981 1.073237 -0.203080 0.238873 0.744618 -3.985038 2.568729 0.000000 0.000000 0.000000 0.232597 0.229963 -33.273981 0.633183 1.011402 0.267681 -5.949378 16.608699 0.584644 0.000000 0.000000 0.000000
